<?xml version="1.0" encoding="UTF-8"?>
<svg version="1.1" xmlns="http://www.w3.org/2000/svg" width="512" height="512">
<path d="M0 0 C0.33 0.33 0.66 0.66 1 1 C0.61644221 6.63624311 -1.05832522 10.78207731 -3.6484375 15.75 C-4.20035767 16.83912689 -4.20035767 16.83912689 -4.76342773 17.95025635 C-5.55021573 19.50035413 -6.34149937 21.04817696 -7.13690186 22.59387207 C-8.81620465 25.85743996 -10.47377157 29.13187165 -12.13223267 32.40606689 C-12.95879006 34.03774798 -13.78640176 35.66889542 -14.61508179 37.29949951 C-17.63035312 43.23935042 -20.54241358 49.22075343 -23.375 55.25 C-28.40992867 65.92026099 -33.70770804 76.45590541 -39 87 C-44.66578598 98.28827249 -50.2977947 109.58160065 -55.68164062 121.0078125 C-61.31239108 132.88230335 -67.27520599 144.59694463 -73.18554688 156.33398438 C-73.6119043 157.18246948 -74.03826172 158.03095459 -74.47753906 158.90515137 C-75.2804366 160.50281323 -76.08501217 162.09963338 -76.89160156 163.69543457 C-79.09009808 168.07278085 -81.11755434 172.47735718 -83 177 C-75.54345992 176.43107897 -68.24976057 175.46883944 -60.890625 174.15234375 C-58.81641639 173.79095741 -56.74219733 173.42963104 -54.66796875 173.06835938 C-51.44645493 172.50172558 -48.22529837 171.93312788 -45.00439453 171.36303711 C-41.86314985 170.8086858 -38.72072187 170.26146909 -35.578125 169.71484375 C-34.62069397 169.54299057 -33.66326294 169.37113739 -32.67681885 169.19407654 C-19.76131 166.95422219 -19.76131 166.95422219 -16 169.1875 C-14.5684784 171.78213289 -15.24469376 173.17633643 -16 176 C-17.10058594 178.32983398 -17.10058594 178.32983398 -18.484375 180.74609375 C-19.00032227 181.65375488 -19.51626953 182.56141602 -20.04785156 183.49658203 C-20.60956055 184.46708496 -21.17126953 185.43758789 -21.75 186.4375 C-22.33491211 187.45956543 -22.91982422 188.48163086 -23.52246094 189.53466797 C-28.43607942 198.09332194 -33.44766527 206.5938236 -38.48828125 215.078125 C-42.49733777 221.82852491 -46.46872504 228.60087847 -50.4375 235.375 C-50.97230484 236.28761093 -50.97230484 236.28761093 -51.51791382 237.21865845 C-58.69614286 249.46887595 -65.85278006 261.7316655 -73 274 C-72.41661865 273.83991455 -71.8332373 273.6798291 -71.23217773 273.51489258 C-67.86521431 272.73824095 -64.50030093 272.73450731 -61.0625 272.6875 C-60.35931641 272.65849609 -59.65613281 272.62949219 -58.93164062 272.59960938 C-55.51796462 272.5580182 -53.20851626 272.88894557 -50.18359375 274.5 C-47.27212097 277.83334987 -46.24722656 281.117613 -45 285.3125 C-42.05614494 295.05974103 -38.17334815 301.1200952 -29.27734375 306.421875 C-14.63480101 313.47263456 2.66085347 314.2722099 18 309 C25.0462766 305.9058074 29.88711137 302.15240458 33 295 C34.97750594 288.54439997 34.63219033 281.96533769 31.9609375 275.77734375 C28.21216178 268.84363255 20.62645437 265.62456675 13.47827148 263.11450195 C10.91373468 262.3540534 8.34156438 261.66238371 5.75 261 C4.81704102 260.75217773 3.88408203 260.50435547 2.92285156 260.24902344 C-5.040384 258.165758 -13.06257126 256.33800004 -21.11816406 254.6484375 C-21.99182617 254.46023438 -22.86548828 254.27203125 -23.765625 254.078125 C-24.53680664 253.91731445 -25.30798828 253.75650391 -26.10253906 253.59082031 C-28 253 -28 253 -30 251 C-30.1875 248.4375 -30.1875 248.4375 -30 246 C-29 245 -29 245 -26.00512695 244.80957031 C-21.47820072 244.88006637 -17.28627071 245.9313923 -12.91796875 247.046875 C-11.63663811 247.36558563 -11.63663811 247.36558563 -10.329422 247.69073486 C-8.52907369 248.14072695 -6.72974194 248.59480368 -4.93139648 249.05273438 C-2.20895218 249.74454868 0.51715986 250.42006879 3.24414062 251.09375 C32.1342663 258.31147942 32.1342663 258.31147942 39.48046875 270.4453125 C43.53548854 279.31658323 44.49690586 288.30009229 41.4375 297.6875 C39.24511128 303.09899469 36.24775377 307.0330146 32 311 C31.48824219 311.48210937 30.97648438 311.96421875 30.44921875 312.4609375 C19.37259075 321.53112916 2.62477898 321.79893671 -11 321 C-23.56742399 319.56560292 -36.65142421 314.87966297 -45.32421875 305.296875 C-50.44350058 298.28023697 -53.5215661 290.26144635 -56 282 C-66.48214282 281.67216743 -76.74921651 282.55546039 -87.16821289 283.59912109 C-89.95567264 283.87681037 -92.74425023 284.14012407 -95.53320312 284.40234375 C-97.32300045 284.57726988 -99.11271734 284.75302141 -100.90234375 284.9296875 C-101.72741928 285.00686005 -102.55249481 285.08403259 -103.40257263 285.1635437 C-107.8566779 285.62090249 -111.7847136 286.38228491 -116 288 C-115.46682038 308.16388383 -105.36217458 329.07085581 -91 343 C-70.43636373 361.27568759 -39.75287569 369.03887891 -12.609375 369.203125 C-11.83097763 369.21013931 -11.05258026 369.21715363 -10.25059509 369.22438049 C-7.75033731 369.24179798 -5.25031623 369.24823312 -2.75 369.25 C-1.89685211 369.25067474 -1.04370422 369.25134949 -0.16470337 369.25204468 C12.43274079 369.23619362 24.68812391 368.92879094 37 366 C37.72300293 365.83371094 38.44600586 365.66742188 39.19091797 365.49609375 C60.91416254 360.31589853 81.86496011 348.8877764 94.25 329.8125 C106.29735823 309.16672904 109.10508224 284.10088656 104.10546875 260.88671875 C101.2617019 250.18381443 96.55359601 240.1578837 89 232 C88.35675781 231.26652344 87.71351563 230.53304687 87.05078125 229.77734375 C69.77174956 211.15687152 43.45222611 203.90449149 19.359375 198.953125 C18.52245621 198.77981659 17.68553741 198.60650818 16.82325745 198.427948 C12.60990294 197.56044141 8.39334907 196.72352443 4.16577148 195.92822266 C2.60389209 195.61677113 1.04211944 195.30478371 -0.51953125 194.9921875 C-1.24557556 194.86523499 -1.97161987 194.73828247 -2.71966553 194.60748291 C-4.74145508 194.19091797 -4.74145508 194.19091797 -8 193 C-9.4675293 190.37548828 -9.4675293 190.37548828 -10 188 C-8.72631836 186.49438477 -8.72631836 186.49438477 -7 185 C1.76529336 185.21747761 10.52133083 187.66427899 19.0625 189.5625 C20.25777817 189.8280217 20.25777817 189.8280217 21.47720337 190.09890747 C45.55430469 195.49391306 70.35372563 201.91589122 89 219 C90.13115234 219.99386719 90.13115234 219.99386719 91.28515625 221.0078125 C107.15549563 235.76205597 114.37855374 256.04909059 115.28515625 277.37890625 C115.95871662 304.9203088 108.90521801 329.31851674 89.625 349.6875 C68.83790244 369.6356564 37.52703656 378.03561241 9.328125 378.203125 C8.53172607 378.21013931 7.73532715 378.21715363 6.91479492 378.22438049 C4.35980501 378.24177798 1.80504696 378.2482324 -0.75 378.25 C-1.62338013 378.25067474 -2.49676025 378.25134949 -3.39660645 378.25204468 C-16.47107206 378.23598895 -29.1887946 377.85368082 -42 375 C-42.80727539 374.82307617 -43.61455078 374.64615234 -44.44628906 374.46386719 C-64.64848158 369.8929139 -82.95395227 362.68516467 -98 348 C-98.928125 347.113125 -99.85625 346.22625 -100.8125 345.3125 C-108 337.71428571 -108 337.71428571 -108 335 C-108.66 335 -109.32 335 -110 335 C-110.26321045 335.70455322 -110.5264209 336.40910645 -110.79760742 337.13500977 C-112.07925055 340.18883354 -113.59139589 342.96658865 -115.23828125 345.83984375 C-115.88684082 346.97389648 -116.53540039 348.10794922 -117.20361328 349.27636719 C-117.90639384 350.49684943 -118.60936055 351.71722449 -119.3125 352.9375 C-120.03900538 354.2033899 -120.76540391 355.46934113 -121.49169922 356.73535156 C-126.8451183 366.05312958 -132.28735122 375.31673562 -137.77734375 384.5546875 C-140.6767389 389.43910125 -143.53195674 394.34831401 -146.38061523 399.26245117 C-148.70339389 403.26368141 -151.04051557 407.25634837 -153.38378906 411.24560547 C-154.42862548 413.02624663 -155.46989274 414.80898903 -156.50683594 416.59423828 C-157.8424445 418.88548989 -159.19843933 421.16310722 -160.5625 423.4375 C-160.94365967 424.09991699 -161.32481934 424.76233398 -161.7175293 425.44482422 C-163.41770219 428.23173282 -164.51269769 429.80522607 -167.58984375 431.03515625 C-170 431 -170 431 -173 429 C-173.99406408 422.13489361 -171.41070773 415.62463535 -169.46875 409.10546875 C-169.08508307 407.79275872 -168.70225401 406.47980356 -168.32019043 405.16662598 C-167.49291823 402.33008011 -166.65968087 399.49538022 -165.82177734 396.66195679 C-164.4825487 392.13322369 -163.15655304 387.60067938 -161.83203125 383.06762695 C-159.67048279 375.67619944 -157.49938971 368.2876108 -155.32473755 360.90002918 C-151.0047497 346.2235112 -146.70015557 331.54247118 -142.39751434 316.86085987 C-140.81593942 311.46557446 -139.23037642 306.07148208 -137.64139557 300.67837334 C-136.64054713 297.27953195 -135.64228848 293.87993327 -134.64454651 290.48017883 C-134.18372836 288.91209235 -133.72181689 287.34432662 -133.25865173 285.77693176 C-130.24496481 275.57604479 -127.50086429 265.33886068 -125 255 C-126.09208015 255.23216721 -126.09208015 255.23216721 -127.20622253 255.46902466 C-134.07411503 256.92638089 -140.944771 258.36971369 -147.81887341 259.79744148 C-151.35268467 260.53191496 -154.88519881 261.27172661 -158.4152832 262.02392578 C-161.82324109 262.74989413 -165.23389822 263.46159261 -168.64687538 264.1635704 C-170.57932924 264.56488409 -172.50872202 264.98084738 -174.43803406 265.39700317 C-176.20930412 265.7576033 -176.20930412 265.7576033 -178.01635742 266.12548828 C-179.05338303 266.34310822 -180.09040863 266.56072815 -181.15885925 266.78494263 C-184.37733387 267.02856192 -186.14925914 266.45519422 -189 265 C-189.33 264.67 -189.66 264.34 -190 264 C-189.57319063 256.14505602 -187.45847403 248.9666875 -185.23046875 241.453125 C-184.83810712 240.10989053 -184.44643286 238.76645511 -184.0553894 237.4228363 C-183.21540634 234.5418675 -182.37080796 231.66230885 -181.52249146 228.78378296 C-180.16251849 224.1689464 -178.81278802 219.55115227 -177.46459961 214.93286133 C-175.81781015 209.29393654 -174.16871023 203.65569813 -172.51663685 198.01831913 C-169.64683686 188.22439952 -166.79703812 178.42482132 -163.9609375 168.62109375 C-163.65640215 167.56851254 -163.65640215 167.56851254 -163.34571457 166.49466705 C-162.52808113 163.66847913 -161.71055416 160.84226045 -160.89320183 158.01599121 C-153.30242605 131.76952827 -145.66933075 105.53536448 -138.02116013 79.30557632 C-137.31573096 76.88608162 -136.61049756 74.46652992 -135.90530396 72.04696655 C-134.8047875 68.2712735 -133.70362552 64.49576932 -132.60192108 60.72042274 C-132.1965166 59.33090896 -131.79129566 57.94134161 -131.38626862 56.55171776 C-130.83268963 54.65264446 -130.27830488 52.7538061 -129.72387695 50.85498047 C-129.41335892 49.79068817 -129.10284088 48.72639587 -128.78291321 47.62985229 C-128.22125449 45.74320707 -127.6224862 43.8674586 -127 42 C-124.59488847 40.83269831 -122.28485589 39.8805326 -119.78125 38.96875 C-118.99278687 38.67222534 -118.20432373 38.37570068 -117.39196777 38.07019043 C-114.6007207 37.02941546 -111.80177754 36.01208181 -109 35 C-107.93749023 34.61602051 -106.87498047 34.23204102 -105.78027344 33.83642578 C-97.03319577 30.68732696 -88.2679052 27.59046988 -79.5 24.5 C-73.97998473 22.55345321 -68.46046874 20.60549649 -62.94140625 18.65625 C-61.91825664 18.29512115 -61.91825664 18.29512115 -60.87443733 17.92669678 C-51.81968099 14.72938549 -42.78818654 11.47578657 -33.77734375 8.15625 C-31.81911467 7.43916835 -29.86078519 6.72236082 -27.90234375 6.00585938 C-25.19311633 5.0146379 -22.48645988 4.01840729 -19.78613281 3.00317383 C-17.36123005 2.09163798 -14.92983961 1.20009552 -12.49609375 0.3125 C-11.80007553 0.04393188 -11.10405731 -0.22463623 -10.38694763 -0.50134277 C-6.21500955 -1.9961508 -3.8880356 -2.24116218 0 0 Z " fill="#000000" transform="translate(385,43)"/>
<path d="M0 0 C0.6946637 -0.0049649 1.38932739 -0.00992981 2.1050415 -0.01504517 C4.40223177 -0.02964548 6.69935299 -0.03646503 8.99658203 -0.04199219 C10.59457399 -0.04774518 12.19256593 -0.05350289 13.79055786 -0.05926514 C17.14129966 -0.06976891 20.4920175 -0.07561572 23.84277344 -0.07910156 C28.13241169 -0.08458651 32.42173257 -0.10861699 36.71127129 -0.13707352 C40.01243002 -0.15571363 43.31351248 -0.16090621 46.61471939 -0.16243744 C48.19594178 -0.16546115 49.77716292 -0.17348023 51.35833359 -0.18662262 C53.57246691 -0.20371315 55.78582714 -0.20179603 58 -0.1953125 C59.25892059 -0.19895813 60.51784119 -0.20260376 61.81491089 -0.20635986 C65.4233277 0.19372259 67.26363971 0.9714979 70.12939453 3.16113281 C72.17418295 6.22831543 72.64379373 7.95894935 73.32080078 11.51782227 C73.53824951 12.61515182 73.75569824 13.71248138 73.97973633 14.84306335 C74.33225464 16.63439445 74.33225464 16.63439445 74.69189453 18.46191406 C77.76040423 33.35077279 81.97561053 47.80281565 86.49650955 62.31155777 C87.58914763 65.82844603 88.66729584 69.34977081 89.74633789 72.87084961 C91.11552926 77.33649208 92.48551777 81.80187677 93.86082458 86.26564026 C98.97277331 102.86076908 103.97942688 119.48740045 108.98226166 136.11568451 C109.92238936 139.23951461 110.86354961 142.36303314 111.80476379 145.48653603 C118.29641489 167.02992819 124.74755099 188.58493091 131.12939453 210.16113281 C138.2678824 187.35454594 145.18848397 164.48476909 152.06689453 141.59863281 C152.61478323 139.77605788 153.16268578 137.95348712 153.71060181 136.13092041 C153.98469281 135.21917179 154.25878382 134.30742317 154.54118061 133.36804581 C155.09696203 131.51927698 155.65274753 129.67050938 156.2085371 127.82174301 C156.48372331 126.90635883 156.75890951 125.99097466 157.04243469 125.04785156 C157.31741602 124.13315094 157.59239735 123.21845032 157.87571144 122.27603149 C158.70512541 119.51675377 159.53428828 116.75740068 160.3634491 113.99804688 C163.532717 103.45369529 166.71628819 92.91381505 169.91522026 82.37842751 C171.14714212 78.31843422 172.37526281 74.25728964 173.60307407 70.1960516 C174.53566831 67.11244506 175.4714494 64.02986624 176.41207886 60.94869995 C181.47962368 44.34455643 186.34195797 27.62230555 189.63119507 10.55780029 C189.78810822 9.75835999 189.94502136 8.95891968 190.10668945 8.13525391 C190.29723152 7.08898331 190.29723152 7.08898331 190.49162292 6.02157593 C191.27922239 3.72407007 192.25071614 2.68172472 194.12939453 1.16113281 C196.91540676 0.23246207 198.74005542 -0.00228936 201.62939453 -0.02636719 C202.40283203 -0.04054688 203.17626953 -0.05472656 203.97314453 -0.06933594 C206.12939453 0.16113281 206.12939453 0.16113281 209.12939453 2.16113281 C208.79939453 4.14113281 208.46939453 6.12113281 208.12939453 8.16113281 C203.67439453 8.65613281 203.67439453 8.65613281 199.12939453 9.16113281 C198.87287109 10.46179688 198.61634766 11.76246094 198.35205078 13.10253906 C196.06383225 24.33050261 193.32797225 35.35364629 190.08642578 46.34472656 C189.6917023 47.69257365 189.29716602 49.04047557 188.90280151 50.38842773 C184.50011841 65.40495429 179.9773504 80.38575399 175.44843292 95.36457825 C174.25639711 99.30899303 173.06680805 103.25414566 171.87695312 107.19921875 C167.61417516 121.33014052 163.34414014 135.45884567 159.06143188 149.58374023 C157.56398659 154.52277122 156.06877656 159.46247814 154.57408714 164.40234375 C153.2103706 168.90837215 151.84152804 173.41282319 150.47167969 177.91699219 C149.74475789 180.31582405 149.01866655 182.71490774 148.29345703 185.11425781 C147.94666901 186.26112061 147.59988098 187.4079834 147.24258423 188.58959961 C145.38483626 194.78948459 143.60712271 201.0045225 141.92138672 207.25292969 C141.64978383 208.25613062 141.64978383 208.25613062 141.37269402 209.27959824 C140.50130742 212.50394492 139.64153908 215.73034454 138.79824829 218.96221924 C138.49164276 220.10906189 138.18503723 221.25590454 137.86914062 222.4375 C137.60459076 223.44850769 137.34004089 224.45951538 137.06747437 225.50115967 C136.11628597 228.19830281 134.96802711 229.99078089 133.12939453 232.16113281 C130.81689453 232.16113281 130.81689453 232.16113281 128.12939453 231.16113281 C125.25093183 224.61378398 123.5035768 217.68303927 121.58642578 210.80566406 C118.55366264 200.06529177 115.42657734 189.35769141 112.20361328 178.67285156 C111.98967674 177.96340204 111.7757402 177.25395252 111.55532074 176.52300453 C110.21156515 172.06912689 108.86467005 167.61620284 107.51709747 163.16347885 C106.31823789 159.20009167 105.12214428 155.23586986 103.92578125 151.27172852 C99.86191933 137.80857018 95.79116526 124.34749691 91.7187624 110.88691998 C90.00216555 105.21273129 88.28692056 99.53813485 86.57248211 93.86329365 C85.20802853 89.34750524 83.84033809 84.8327054 82.47192383 80.31811523 C78.81773561 68.24139904 75.22652179 56.14859536 71.74658203 44.02050781 C71.41912994 42.88292526 71.09167786 41.74534271 70.75430298 40.57328796 C64.12939453 17.33329096 64.12939453 17.33329096 64.12939453 8.16113281 C41.02939453 8.16113281 17.92939453 8.16113281 -5.87060547 8.16113281 C-2.57060547 16.41113281 0.72939453 24.66113281 4.12939453 33.16113281 C5.78044719 37.63379686 7.40557303 42.08921634 8.95361328 46.59472656 C9.34241669 47.70982605 9.73122009 48.82492554 10.13180542 49.97381592 C10.94768868 52.31553775 11.76110742 54.65811971 12.572052 57.0015564 C13.85993605 60.72300487 15.15441796 64.4421217 16.45141602 68.16040039 C16.67092076 68.78970805 16.89042551 69.41901571 17.11658192 70.0673933 C17.55925896 71.33643681 18.00196755 72.60546931 18.44470787 73.87449074 C19.10278828 75.76142197 19.76011333 77.64861659 20.41743469 79.53581238 C24.12025776 90.160135 27.89114891 100.75902142 31.69189453 111.34863281 C37.7264737 128.1758921 43.66680493 145.0353358 49.58261108 161.9046936 C54.04060477 174.61385148 58.52756103 187.31119462 63.10595703 199.97753906 C63.51394531 201.10689377 63.92193359 202.23624847 64.34228516 203.39982605 C64.95088379 205.08438652 64.95088379 205.08438652 65.57177734 206.80297852 C65.97481079 207.91855133 66.37784424 209.03412415 66.79309082 210.1835022 C67.59640449 212.4069033 68.40003073 214.6301915 69.20397949 216.85336304 C75.24331072 233.57930237 80.93950224 250.3892755 86.2109375 267.37353516 C86.45725922 268.1560968 86.70358093 268.93865845 86.95736694 269.74493408 C87.4104803 271.18589157 87.8560863 272.62924211 88.29238892 274.07537842 C89.76099818 278.78724673 89.76099818 278.78724673 93.12939453 282.16113281 C95.63579493 282.45189508 97.89297433 282.56100195 100.39892578 282.53344727 C101.50426163 282.53892326 101.50426163 282.53892326 102.63192749 282.54450989 C105.06881729 282.55261881 107.50504284 282.53900292 109.94189453 282.52441406 C111.63435872 282.52389549 113.32682352 282.52441307 115.01928711 282.52592468 C118.56682321 282.52583494 122.11413212 282.51540231 125.66162109 282.49731445 C130.21148719 282.47462718 134.76102126 282.47408299 139.31092834 282.4808321 C142.80589759 282.4841718 146.30079098 282.47754198 149.79574585 282.46770287 C151.47349653 282.46385059 153.15125565 282.46270277 154.82901001 282.46428871 C157.17279163 282.46465911 159.51614581 282.45204659 161.85986328 282.43579102 C162.55502045 282.43826843 163.25017761 282.44074585 163.96640015 282.44329834 C167.58399818 282.40320539 169.02719759 282.22926411 172.12939453 280.16113281 C173.04473454 278.37488477 173.04473454 278.37488477 173.65649414 276.25097656 C173.91827957 275.43876648 174.180065 274.6265564 174.44978333 273.78973389 C174.72432846 272.90167053 174.9988736 272.01360718 175.28173828 271.09863281 C175.7262458 269.70780487 175.7262458 269.70780487 176.17973328 268.28887939 C176.81801617 266.2897061 177.45180755 264.28909442 178.081604 262.28723145 C179.73414978 257.04408647 181.42872875 251.81451593 183.11767578 246.58300781 C183.62509308 245.00709869 183.62509308 245.00709869 184.14276123 243.39935303 C187.02748281 234.44724071 189.94085088 225.50650862 193.00149536 216.61279297 C193.50147483 215.1507315 193.99428049 213.68619618 194.47970581 212.21923828 C195.14950038 210.19832991 195.8428797 208.18716487 196.54345703 206.17675781 C197.11507568 204.49501465 197.11507568 204.49501465 197.69824219 202.77929688 C199.12939453 200.16113281 199.12939453 200.16113281 201.60351562 198.66015625 C204.12939453 198.16113281 204.12939453 198.16113281 207.12939453 200.16113281 C206.57267262 206.77365525 204.85929532 212.48060379 202.62939453 218.71191406 C202.27754089 219.7163707 201.92568726 220.72082733 201.56317139 221.75572205 C200.42603902 224.99770548 199.2780749 228.23572497 198.12939453 231.47363281 C196.56878476 235.90085428 195.01274177 240.32967255 193.45751953 244.75878906 C193.07718567 245.8396579 192.69685181 246.92052673 192.30499268 248.03414917 C190.18667392 254.07314281 188.12510979 260.12393233 186.17626953 266.21972656 C185.77537109 267.46778076 185.37447266 268.71583496 184.96142578 270.00170898 C184.26385667 272.19971275 183.57804139 274.40149844 182.90673828 276.60766602 C180.95958438 282.71996854 178.9856002 286.62092325 173.45358276 290.26504517 C170.14266989 291.54156317 166.92522952 291.45603835 163.42675781 291.45166016 C162.65552582 291.45837738 161.88429382 291.4650946 161.08969116 291.47201538 C158.54296404 291.49099578 155.99650046 291.49491958 153.44970703 291.49707031 C151.67617688 291.50349825 149.9026478 291.51022661 148.12911987 291.51724243 C144.41190126 291.52921532 140.69477559 291.53292325 136.97753906 291.53173828 C132.2204625 291.5315351 127.46398341 291.55883611 122.70704842 291.5932827 C119.04382606 291.61554919 115.38074754 291.6195759 111.71746445 291.61851883 C109.9640179 291.62087521 108.21056742 291.62970085 106.45718765 291.64518356 C104.00130953 291.66483881 101.54672038 291.6590081 99.09082031 291.64697266 C98.37061707 291.65821167 97.65041382 291.66945068 96.90838623 291.68103027 C91.85827436 291.61832262 89.02459205 290.31855389 85.12939453 287.16113281 C81.51194032 282.67627924 79.8645864 278.06404326 78.20361328 272.64550781 C77.93976837 271.81490341 77.67592346 270.98429901 77.40408325 270.12852478 C76.83390598 268.33328782 76.26750447 266.53684816 75.70449829 264.73934937 C74.17076365 259.85233345 72.60061973 254.97710411 71.02783203 250.10253906 C70.54256798 248.59799919 70.54256798 248.59799919 70.04750061 247.06306458 C66.86685518 237.25640823 63.44337919 227.5446097 59.94189453 217.84863281 C59.63686005 217.00309845 59.33182556 216.15756409 59.01754761 215.28640747 C57.74135334 211.74920801 56.46511431 208.21202516 55.18766785 204.67527771 C51.42204412 194.23201797 47.75496731 183.75426739 44.0819397 173.27816772 C37.00261957 153.08867614 29.83899217 132.93157438 22.58984375 112.80245972 C17.83263517 99.58745257 13.13230248 86.35429522 8.51220703 73.09082031 C8.03647059 71.72602263 7.56073207 70.36122567 7.08499146 68.99642944 C5.23369175 63.68325447 3.38277231 58.36996677 1.54473877 53.05218506 C0.28002227 49.39440852 -0.9888492 45.73812483 -2.26123047 42.08300781 C-2.65762726 40.94384918 -3.05402405 39.80469055 -3.46243286 38.63101196 C-6.00327477 31.40948659 -8.71824612 24.29398213 -11.878479 17.31854248 C-13.58331492 13.44003106 -14.32650022 10.3944412 -13.87060547 6.16113281 C-10.03805784 0.21407615 -6.76198982 0.03672139 0 0 Z " fill="#000000" transform="translate(25.87060546875,116.8388671875)"/>
<path d="M0 0 C12.86097759 4.48383905 24.57335836 10.52858483 34.77734375 19.65234375 C35.61007812 20.39097656 36.4428125 21.12960938 37.30078125 21.890625 C49.64930265 33.49823511 57.8476476 48.76969289 62.33984375 65.02734375 C62.53296143 65.68138184 62.7260791 66.33541992 62.92504883 67.00927734 C63.83921208 70.65016091 63.72219041 72.85755579 62.7421875 76.50390625 C60.25413322 80.49072881 59.29726094 80.53775224 54.77734375 81.65234375 C50.72485794 82.27936331 46.65912806 82.72558008 42.58203125 83.16015625 C40.8062822 83.35567581 40.8062822 83.35567581 38.99465942 83.55514526 C36.49191172 83.82892737 33.98879665 84.09936911 31.48535156 84.36669922 C27.68571331 84.77376874 23.88779486 85.19469995 20.08984375 85.6171875 C17.64983069 85.88235011 15.20972903 86.14669893 12.76953125 86.41015625 C11.64723114 86.53512482 10.52493103 86.66009338 9.36862183 86.78884888 C3.99186796 87.354293 -1.38061057 87.79421184 -6.78466797 87.97998047 C-7.73477753 88.01517792 -8.68488708 88.05037537 -9.66378784 88.0866394 C-13.0122046 87.51834021 -14.1243867 86.26445573 -16.22265625 83.65234375 C-17.53125 80.62890625 -17.53125 80.62890625 -18.66015625 77.27734375 C-21.39412036 69.91540424 -23.72433067 65.83678204 -30.72265625 61.90234375 C-42.04822497 56.71633739 -55.76136068 56.16485731 -67.6640625 59.6640625 C-74.16686582 62.19337373 -78.89725848 64.91148646 -82.66015625 70.96484375 C-84.22265625 72.65234375 -84.22265625 72.65234375 -87.34765625 72.96484375 C-90.22265625 72.65234375 -90.22265625 72.65234375 -91.22265625 71.65234375 C-91.66702925 68.37082004 -91.42386532 66.96339158 -89.60546875 64.15234375 C-79.66021364 53.14029656 -68.95406989 49.47440331 -54.265625 48.69140625 C-42.24841626 48.41914363 -29.75108685 50.62339044 -19.84765625 57.83984375 C-14.22779788 63.86112058 -10.80768292 70.89726375 -8.22265625 78.65234375 C5.173118 78.00348593 18.45289866 76.5787417 31.77734375 75.08984375 C33.92053492 74.85317134 36.06376389 74.61684088 38.20703125 74.38085938 C43.39757868 73.8086212 48.58759567 73.23178474 53.77734375 72.65234375 C51.1331605 52.90881603 40.48488374 35.02191817 24.80859375 22.8125 C16.75542753 17.07358129 8.56096537 12.67657492 -0.72265625 9.33984375 C-1.36154785 9.10950439 -2.00043945 8.87916504 -2.65869141 8.6418457 C-15.1422281 4.42652507 -27.95960609 3.00104254 -41.0234375 1.92016602 C-43.0019239 1.75347948 -44.97950358 1.57613702 -46.95703125 1.3984375 C-48.11428711 1.30232178 -49.27154297 1.20620605 -50.46386719 1.10717773 C-53.22265625 0.65234375 -53.22265625 0.65234375 -55.22265625 -1.34765625 C-54.97265625 -3.91015625 -54.97265625 -3.91015625 -54.22265625 -6.34765625 C-41.07754317 -12.92021279 -13.28002268 -4.37514135 0 0 Z " fill="#000000" transform="translate(431.22265625,124.34765625)"/>
<path d="M0 0 C4.33428192 0.45253524 6.89836037 2.38700631 10.2421875 4.9765625 C11.15701904 5.66335083 11.15701904 5.66335083 12.09033203 6.36401367 C13.30095615 7.27366898 14.50794397 8.18818731 15.7109375 9.10791016 C17.12844058 10.17229116 18.58801951 11.18023772 20.0546875 12.17578125 C20.7765625 12.66691406 21.4984375 13.15804687 22.2421875 13.6640625 C22.85835937 14.07269531 23.47453125 14.48132813 24.109375 14.90234375 C25.3671875 16.3515625 25.3671875 16.3515625 25.625 18.95703125 C25.3671875 21.3515625 25.3671875 21.3515625 24.3671875 22.3515625 C17.17093178 22.3515625 12.61673625 18.4865419 6.9921875 14.3515625 C6.07824219 13.69671875 5.16429687 13.041875 4.22265625 12.3671875 C-2.32874504 7.65562996 -2.32874504 7.65562996 -3.6328125 6.3515625 C-3.7578125 3.8515625 -3.7578125 3.8515625 -3.6328125 1.3515625 C-2.6328125 0.3515625 -2.6328125 0.3515625 0 0 Z " fill="#000000" transform="translate(152.6328125,75.6484375)"/>
<path d="M0 0 C2.5625 0.1875 2.5625 0.1875 4.5625 2.1875 C4.14497344 8.66657077 1.28569678 15.11620949 -1 21.125 C-1.31646484 21.97384766 -1.63292969 22.82269531 -1.95898438 23.69726562 C-4.2514881 29.81547619 -4.2514881 29.81547619 -5.4375 32.1875 C-7.8125 32.3125 -7.8125 32.3125 -10.4375 32.1875 C-11.0975 31.5275 -11.7575 30.8675 -12.4375 30.1875 C-12.15908553 23.69696269 -9.69244593 17.84408613 -7.4375 11.8125 C-6.88449219 10.29849609 -6.88449219 10.29849609 -6.3203125 8.75390625 C-3.18236381 0.24479722 -3.18236381 0.24479722 0 0 Z " fill="#000000" transform="translate(275.4375,452.8125)"/>
<path d="M0 0 C2.67578125 0.35546875 2.67578125 0.35546875 4.6328125 2.3046875 C5.55126953 3.66013672 5.55126953 3.66013672 6.48828125 5.04296875 C7.16375 6.03941406 7.83921875 7.03585937 8.53515625 8.0625 C9.2415625 9.14917969 9.94796875 10.23585938 10.67578125 11.35546875 C11.45170482 12.50528804 12.22774764 13.65502686 13.00390625 14.8046875 C13.75117986 15.94499195 14.49603175 17.08688763 15.23828125 18.23046875 C15.92019531 19.27976562 16.60210937 20.3290625 17.3046875 21.41015625 C18.82815658 24.68279353 18.81109851 25.99294442 17.67578125 29.35546875 C14.90161133 29.62719727 14.90161133 29.62719727 11.67578125 29.35546875 C9.7253418 27.53881836 9.7253418 27.53881836 8.0625 25.0078125 C7.45470703 24.09193359 6.84691406 23.17605469 6.22070312 22.23242188 C5.60775391 21.26240234 4.99480469 20.29238281 4.36328125 19.29296875 C3.73099609 18.35001953 3.09871094 17.40707031 2.44726562 16.43554688 C-0.81655913 11.41562349 -3.2830337 7.42614441 -3.32421875 1.35546875 C-2.32421875 0.35546875 -2.32421875 0.35546875 0 0 Z " fill="#000000" transform="translate(354.32421875,444.64453125)"/>
<path d="M0 0 C2.5625 0.1875 2.5625 0.1875 4.5625 2.1875 C5.91484807 11.81979047 6.32041053 22.48881442 5.5625 32.1875 C4.9025 32.8475 4.2425 33.5075 3.5625 34.1875 C-0.99305556 33.63194444 -0.99305556 33.63194444 -2.4375 32.1875 C-3.39161555 24.46034196 -3.53524164 16.65271913 -3.5625 8.875 C-3.56709229 8.12798828 -3.57168457 7.38097656 -3.57641602 6.61132812 C-3.55799265 0.27369174 -3.55799265 0.27369174 0 0 Z " fill="#000000" transform="translate(242.4375,26.8125)"/>
</svg>
